<svg xmlns="http://www.w3.org/2000/svg" viewBox="0 0 1200 675" width="1200" height="675" style="background:#0b1317; font-family:-apple-system,BlinkMacSystemFont,'Segoe UI',Roboto,Helvetica,Arial,sans-serif;">
  <defs>
    <linearGradient id="bg-grad" x1="0%" y1="0%" x2="100%" y2="100%">
      <stop offset="0%" stop-color="#091115"/>
      <stop offset="100%" stop-color="#0f1f26"/>
    </linearGradient>
    <linearGradient id="teal-grad" x1="0%" y1="0%" x2="100%" y2="0%">
      <stop offset="0%" stop-color="#0F766E"/>
      <stop offset="100%" stop-color="#14B8A6"/>
    </linearGradient>
    <linearGradient id="gold-grad" x1="0%" y1="0%" x2="100%" y2="0%">
      <stop offset="0%" stop-color="#D97706"/>
      <stop offset="100%" stop-color="#F59E0B"/>
    </linearGradient>
  </defs>

  <!-- Background -->
  <rect width="1200" height="675" fill="url(#bg-grad)"/>
  
  <!-- Subtle Grid Pattern -->
  <g stroke="#ffffff" stroke-opacity="0.03" stroke-width="1">
    <line x1="100" y1="0" x2="100" y2="675"/>
    <line x1="300" y1="0" x2="300" y2="675"/>
    <line x1="500" y1="0" x2="500" y2="675"/>
    <line x1="700" y1="0" x2="700" y2="675"/>
    <line x1="900" y1="0" x2="900" y2="675"/>
    <line x1="1100" y1="0" x2="1100" y2="675"/>
    <line x1="0" y1="100" x2="1200" y2="100"/>
    <line x1="0" y1="250" x2="1200" y2="250"/>
    <line x1="0" y1="400" x2="1200" y2="400"/>
    <line x1="0" y1="550" x2="1200" y2="550"/>
  </g>

  <!-- Header -->
  <rect x="60" y="50" width="180" height="32" rx="16" fill="#0F766E" fill-opacity="0.2" stroke="#0F766E" stroke-width="1.5"/>
  <text x="150" y="71" text-anchor="middle" fill="#14B8A6" font-size="13" font-weight="700" letter-spacing="1">DEVELOPER VISUAL #06</text>
  
  <text x="60" y="125" fill="#FFFFFF" font-size="32" font-weight="800">WAYNAH Future Architecture &amp; AI Expansion Roadmap</text>
  <text x="60" y="155" fill="#94A3B8" font-size="16" font-weight="400">Architectural vision designed &amp; orchestrated under the M.GH.AL identity</text>

  <!-- Developer Profile Card Sidebar -->
  <rect x="60" y="190" width="340" height="435" rx="16" fill="#111c23" stroke="#1e2d37" stroke-width="1.5"/>
  <circle cx="120" cy="250" r="35" fill="#0F766E" fill-opacity="0.3" stroke="#14B8A6" stroke-width="2"/>
  <text x="120" y="256" text-anchor="middle" fill="#FFFFFF" font-size="20" font-weight="800">M</text>

  <text x="175" y="245" fill="#FFFFFF" font-size="18" font-weight="700">M.GH.AL</text>
  <text x="175" y="265" fill="#14B8A6" font-size="13" font-weight="600">Lead System Architect</text>
  <text x="175" y="282" fill="#94A3B8" font-size="12">Mohammed Ghaleb AL-AOSIMI</text>

  <line x1="90" y1="310" x2="370" y2="310" stroke="#1e2d37" stroke-width="1"/>

  <text x="90" y="340" fill="#E2E8F0" font-size="14" font-weight="700">Core Engineering Principles</text>
  
  <rect x="90" y="360" width="280" height="36" rx="8" fill="#16252f"/>
  <text x="105" y="383" fill="#38BDF8" font-size="12" font-weight="600">⚡ Production-First Systems vs Isolated Demos</text>

  <rect x="90" y="408" width="280" height="36" rx="8" fill="#16252f"/>
  <text x="105" y="431" fill="#34D399" font-size="12" font-weight="600">🌍 PostGIS Native Spatial Boundaries</text>

  <rect x="90" y="456" width="280" height="36" rx="8" fill="#16252f"/>
  <text x="105" y="479" fill="#FBBF24" font-size="12" font-weight="600">🛡️ Multi-Layered Verification &amp; Audit Logs</text>

  <rect x="90" y="504" width="280" height="36" rx="8" fill="#16252f"/>
  <text x="105" y="527" fill="#A78BFA" font-size="12" font-weight="600">🔍 Arabic Orthographic Fuzzy Search</text>

  <rect x="90" y="560" width="280" height="40" rx="8" fill="url(#teal-grad)"/>
  <text x="230" y="585" text-anchor="middle" fill="#FFFFFF" font-size="13" font-weight="700">github.com/mghalaosimi-web</text>

  <!-- Roadmap Pillars -->
  <!-- Pillar 1: Offline PWA -->
  <rect x="430" y="190" width="225" height="435" rx="16" fill="#111c23" stroke="#1e2d37" stroke-width="1.5"/>
  <rect x="450" y="210" width="185" height="32" rx="8" fill="#0F766E" fill-opacity="0.25" stroke="#14B8A6" stroke-width="1"/>
  <text x="542" y="231" text-anchor="middle" fill="#2DD4BF" font-size="13" font-weight="700">PHASE I — OFFLINE PWA</text>

  <text x="450" y="270" fill="#FFFFFF" font-size="16" font-weight="700">Low-Bandwidth Sync</text>
  <text x="450" y="295" fill="#94A3B8" font-size="12">• Offline Vector Map Tiles</text>
  <text x="450" y="315" fill="#94A3B8" font-size="12">• Service Worker Cache Engine</text>
  <text x="450" y="335" fill="#94A3B8" font-size="12">• Local IndexedDB Spatial DB</text>
  <text x="450" y="355" fill="#94A3B8" font-size="12">• Delta Sync on Reconnect</text>

  <rect x="450" y="560" width="185" height="40" rx="8" fill="#16252f" stroke="#0F766E" stroke-width="1"/>
  <text x="542" y="585" text-anchor="middle" fill="#2DD4BF" font-size="12" font-weight="700">Ready for Provisioning</text>

  <!-- Pillar 2: Expo Mobile -->
  <rect x="675" y="190" width="225" height="435" rx="16" fill="#111c23" stroke="#1e2d37" stroke-width="1.5"/>
  <rect x="695" y="210" width="185" height="32" rx="8" fill="#3B82F6" fill-opacity="0.2" stroke="#60A5FA" stroke-width="1"/>
  <text x="787" y="231" text-anchor="middle" fill="#60A5FA" font-size="13" font-weight="700">PHASE II — EXPO MOBILE</text>

  <text x="695" y="270" fill="#FFFFFF" font-size="16" font-weight="700">iOS &amp; Android Apps</text>
  <text x="695" y="295" fill="#94A3B8" font-size="12">• React Native / Expo Core</text>
  <text x="695" y="315" fill="#94A3B8" font-size="12">• Native GPS Tracking Layer</text>
  <text x="695" y="335" fill="#94A3B8" font-size="12">• Background Location Sync</text>
  <text x="695" y="355" fill="#94A3B8" font-size="12">• Push Notification Dispatcher</text>

  <rect x="695" y="560" width="185" height="40" rx="8" fill="#16252f" stroke="#3B82F6" stroke-width="1"/>
  <text x="787" y="585" text-anchor="middle" fill="#60A5FA" font-size="12" font-weight="700">Validated Architecture</text>

  <!-- Pillar 3: AI Assistant -->
  <rect x="920" y="190" width="220" height="435" rx="16" fill="#111c23" stroke="#1e2d37" stroke-width="1.5"/>
  <rect x="940" y="210" width="180" height="32" rx="8" fill="#8B5CF6" fill-opacity="0.2" stroke="#A78BFA" stroke-width="1"/>
  <text x="1030" y="231" text-anchor="middle" fill="#A78BFA" font-size="13" font-weight="700">PHASE III — PGVECTOR AI</text>

  <text x="940" y="270" fill="#FFFFFF" font-size="16" font-weight="700">Natural Language Location AI</text>
  <text x="940" y="295" fill="#94A3B8" font-size="12">• pgvector Semantic Embeddings</text>
  <text x="940" y="315" fill="#94A3B8" font-size="12">• Dialectal Arabic Location RAG</text>
  <text x="940" y="335" fill="#94A3B8" font-size="12">• Natural Query Intent Resolution</text>
  <text x="940" y="355" fill="#94A3B8" font-size="12">• Contextual Routing Advice</text>

  <rect x="940" y="560" width="180" height="40" rx="8" fill="#16252f" stroke="#8B5CF6" stroke-width="1"/>
  <text x="1030" y="585" text-anchor="middle" fill="#A78BFA" font-size="12" font-weight="700">Exploratory Direction</text>
</svg>
